<svg id="Layer_1" data-name="Layer 1" xmlns="http://www.w3.org/2000/svg" viewBox="0 0 600 600"><defs><style>.cls-1{fill:#37ab52;}</style></defs><path class="cls-1" d="M248.56,225.44c23.09,7.16,30.71,24.14,30.71,24.14s-29.82,5.37-52.91-1.79-30.72-24.14-30.72-24.14S225.47,218.28,248.56,225.44Z"/><path class="cls-1" d="M329.68,224.33c22.74-3.23,54.52,1.61,54.52,1.61s-9.68,15.42-32.93,22S300,249.9,300,249.9,305.88,227.71,329.68,224.33Z"/><path class="cls-1" d="M348.53,200.52c9.27-5.39,29.64-2,29.64-2s5.33,12.16-3.94,17.55-29.64,2-29.64,2S339.25,205.92,348.53,200.52Z"/><path class="cls-1" d="M210.12,217.39a8.41,8.41,0,0,1-5.58-7.82s9.35-2.5,15.05-.47a8.43,8.43,0,0,1,5.58,7.83S215.82,219.42,210.12,217.39Z"/><path class="cls-1" d="M249.78,184.71c-4.37-5.61,4-13.06,4-13.06s15.47,1.65,19.84,7.26-4,13.06-4,13.06S254.14,190.32,249.78,184.71Z"/><path class="cls-1" d="M278.43,191.13c8.64-21.55,48.38-34.93,48.38-34.93s25.72,21.57,17.08,43.13-48.39,34.93-48.39,34.93S269.78,212.69,278.43,191.13Z"/><path class="cls-1" d="M290.06,233a32.7,32.7,0,0,1-2.33,8.27s-4.13-.63-10.23-2.08c-5-6-13.92-13.76-28.42-18.26a90.13,90.13,0,0,0-14.76-3.14c-12.21-14.85-3.93-32.2-3.93-32.2S253.08,189,270.2,198.4C271,216.48,288.74,231.83,290.06,233Z"/><path class="cls-1" d="M393.51,274.22a2.14,2.14,0,0,1-2.05.57,1.81,1.81,0,0,1-1-.52c-3.7-3.61-14.1-5.69-31.73-6.35,3.09,4.89,9.91,14.16,20,19.66.77.46,1.6.87,2.42,1.26a2.1,2.1,0,0,1,1.09,1.12l-2.87,2.9-.07,0c-1.33-.62-2.58-1.28-3.82-2-12.31-7.17-19.64-18.85-22-23.05-5.69-.11-12.24-.13-20,0a91.55,91.55,0,0,1-22.86-2.47c1.87,4.54,6,12.74,12.29,15.44a2.21,2.21,0,0,1,1.16,2.9,2.25,2.25,0,0,1-2.9,1.14c-9.41-4-14.36-16.6-15.83-20.94a62.24,62.24,0,0,1-10.8-4.5l.34,28.37a106.35,106.35,0,0,0,20.67,9.38c3.25-2.05,13.89-7.85,31.86-9.52a2.2,2.2,0,1,1,.41,4.38,76.45,76.45,0,0,0-26.33,6.9c1.17.34,2.26.62,3.34.85,2,.45,4.45.93,7,1.43,8.79,1.69,19.14,3.68,25.85,7.5A19.56,19.56,0,0,1,361.1,311L358,314.17a16.33,16.33,0,0,0-3.56-2.31c-4.57-2.3-11.1-3.93-17-5.18.67,3.79,2.36,10.71,6,16.17a21.47,21.47,0,0,0,2.29,2.9,2,2,0,0,1,.29.43l-3,3a1.62,1.62,0,0,1-.54-.41,26.93,26.93,0,0,1-2.22-2.72c-5.18-7.21-7-16.62-7.51-20.26l-1.74-.34c-2.63-.5-5.12-1-7.22-1.46a110,110,0,0,1-28.89-11.15l.16,13.07a30.88,30.88,0,0,1,19.21,7.72,2.14,2.14,0,0,1,.75,1.51,2.08,2.08,0,0,1-.52,1.59,2.22,2.22,0,0,1-3.11.23,26.87,26.87,0,0,0-16.28-6.67l.13,11.58c4.34,1.21,18.73,10.76,29.56,19.21a1.29,1.29,0,0,1,.2.21,2.18,2.18,0,0,1,.16,2.9,2.25,2.25,0,0,1-3.08.36c-.07,0-.11-.09-.18-.13-9.23-7.22-22.38-16.59-26.59-17.91l.16,38a1.29,1.29,0,0,1,0,.39,2.16,2.16,0,0,1-2.13,1.83,2.24,2.24,0,0,1-2.17-1.67,2,2,0,0,1-.07-.5l-.36-54.24c-4.48.25-8.7,1.25-18.41,5.5,2.08,16.72-5.25,23-5.57,23.3a2.26,2.26,0,0,1-3.11-.3,2.2,2.2,0,0,1,.3-3.08s5.37-5,4.18-17.93a82.72,82.72,0,0,0-19,12.72c-.21.16-.39.34-.57.5a2.27,2.27,0,0,1-3.11-.14,2.24,2.24,0,0,1-.57-1.59,2.2,2.2,0,0,1,.73-1.53c.14-.12.27-.26.41-.37a87.68,87.68,0,0,1,23-14.94c11.42-5.09,16.29-6.26,21.65-6.55l-.36-29.33c-7.22,5.58-22.52,16.36-32.82,16.49-.82,0-1.65,0-2.47,0,0,3.79-8.06,23.07-12.45,28.34a2.19,2.19,0,0,1-1.78.76,2.36,2.36,0,0,1-1.32-.48,2.3,2.3,0,0,1-.78-1.63,2.16,2.16,0,0,1,.5-1.48c3.38-4.07,11.38-22,11.42-25.26-8.42.71-18.5,2.92-26.6,12a35.12,35.12,0,0,0-2.61,3.28l-3.15-3.15a37.43,37.43,0,0,1,2.63-3.24c9.54-10.67,21.63-12.88,31.56-13.45l.27-.05.14,0c1.44-.09,3-.13,4.59-.16a20.39,20.39,0,0,0,6.1-1.25,54.72,54.72,0,0,1-18.41-8.5,2.13,2.13,0,0,1-.89-1.44,2.16,2.16,0,0,1,.41-1.64,2.21,2.21,0,0,1,3.06-.48,51.53,51.53,0,0,0,22.93,8.91A133.34,133.34,0,0,0,290.21,271l-.14-12.15a67.89,67.89,0,0,1-12,3.27c.3,2.78-.41,7.76-6.67,13.68a2.26,2.26,0,0,1-3.1-.09,2.21,2.21,0,0,1-.6-1.58,2.11,2.11,0,0,1,.69-1.55c4.79-4.52,5.43-8,5.34-9.73A225.08,225.08,0,0,1,243.43,265c-3.6,0-6.94.09-10,.16-2.15,3.58-9.11,13.88-24.05,25.6-1.07.85-2.19,1.69-3.36,2.54l-3.15-3.16c1.17-.82,2.29-1.69,3.36-2.53,12-9.36,18.82-17.95,21.81-22.29-25.65.87-30.56,3.17-35.42,8.17a1,1,0,0,1-.28.23,2.26,2.26,0,0,1-2.83-.2,2.18,2.18,0,0,1-.25-2.86,2.76,2.76,0,0,1,.21-.25c6.5-6.67,13.17-8.86,42.13-9.61a2.45,2.45,0,0,1,1,0c3.17-.1,6.81-.16,10.78-.21,31.06-.39,43.17-4.86,46.61-6.53l-.06-6.19a2.18,2.18,0,0,1,2.17-2.22,2.21,2.21,0,0,1,2.23,2.17l.07,6.33c3.22,2,16.67,9.43,38.94,9.16,8.34-.09,15.31-.07,21.29.07,22,.57,33.94,2.94,38.83,7.72a2.27,2.27,0,0,1,.59,1.07A2.12,2.12,0,0,1,393.51,274.22Z"/><path class="cls-1" d="M413.79,222.61,310.31,119.1a25.34,25.34,0,0,0-35.77,0L171.06,222.61a25.28,25.28,0,0,0,0,35.74l31.81,31.81,3.15,3.16,15.35,15.34,53.17,53.2a25.39,25.39,0,0,0,35.77,0L346,326.18l12-12L361.1,311l18.21-18.18,2.87-2.9,31.61-31.61a25.28,25.28,0,0,0,0-35.74Zm-2.94,32.79-16.79,16.79-15.39,15.39-3.25,3.25L357.65,308.6l-3.24,3.26-11,11L340.25,326,325,341.26l-3.1,3.13-14.53,14.52a21,21,0,0,1-11.94,6,20.59,20.59,0,0,1-4.3.16,21,21,0,0,1-13.63-6.12L249.08,330.5,246,327.37l-5.21-5.18-2.1-2.11L224,305.38l-3.13-3.11-11.47-11.49-17-17-3.08-3.06L174,255.4a21.09,21.09,0,0,1,0-29.85L277.49,122a21.19,21.19,0,0,1,29.87,0L410.85,225.55a21.09,21.09,0,0,1,0,29.85Z"/><ellipse class="cls-1" cx="281.31" cy="163.29" rx="8.75" ry="9.78"/><ellipse class="cls-1" cx="292.56" cy="143.73" rx="6.19" ry="6.92"/><path class="cls-1" d="M60,434.3a25.07,25.07,0,0,1-9-5l3.72-7.62a26.87,26.87,0,0,0,7.93,4.54,29.31,29.31,0,0,0,9.55,2c4,.14,7-.39,9-1.6a5.81,5.81,0,0,0,3.13-5,4.87,4.87,0,0,0-1.52-3.84,11.39,11.39,0,0,0-4.09-2.48c-1.66-.63-3.94-1.34-6.83-2.16a79.28,79.28,0,0,1-9.81-3.26,16.37,16.37,0,0,1-6.35-4.78,12.3,12.3,0,0,1-2.43-8.48,14.26,14.26,0,0,1,2.7-8,16.3,16.3,0,0,1,7.48-5.53,29.64,29.64,0,0,1,12-1.73A38.68,38.68,0,0,1,85,383a26.46,26.46,0,0,1,8.07,3.81l-3.41,7.62a31.28,31.28,0,0,0-7.25-3.4,27.85,27.85,0,0,0-7.39-1.33c-3.93-.14-6.88.43-8.84,1.69a6.13,6.13,0,0,0-3,5.18,4.8,4.8,0,0,0,1.51,3.81,11.91,11.91,0,0,0,4.1,2.44c1.66.63,3.94,1.35,6.82,2.16a72.27,72.27,0,0,1,9.71,3.22,16.82,16.82,0,0,1,6.38,4.78,12,12,0,0,1,2.44,8.37,14.16,14.16,0,0,1-2.7,8,16.36,16.36,0,0,1-7.51,5.48,29.63,29.63,0,0,1-12,1.73A40.73,40.73,0,0,1,60,434.3Z"/><path class="cls-1" d="M118.6,390.36l-17.77-.62.3-8.42,45.49,1.59-.29,8.42-17.77-.62L127,435.9l-10-.35Z"/><path class="cls-1" d="M190.14,423.78l-26.81-.93-5.72,12.22-10.26-.36,26-52.77,9.8.34,22.33,54.46-10.41-.36Zm-3-7.93-9.29-23.78L167,415.15Z"/><path class="cls-1" d="M250.05,436.22l-10.4-16.08a19.28,19.28,0,0,1-2.07,0l-12.11-.43-.54,15.63L215,435l1.87-53.61,22.06.77A29.68,29.68,0,0,1,251,384.88a17.7,17.7,0,0,1,7.7,6.86,18.42,18.42,0,0,1,2.4,10.29,18.22,18.22,0,0,1-3.31,10.31,17.59,17.59,0,0,1-8.69,6.21l11.71,18.05Zm-2.12-42.55q-3.27-2.88-9.78-3.1l-11.64-.41-.75,21.37,11.64.4q6.51.24,10-2.45a11,11,0,0,0,.55-15.81Z"/><path class="cls-1" d="M311.2,408.8l9.42.33-.75,21.37a30,30,0,0,1-9.82,4.72,37.13,37.13,0,0,1-11.4,1.37A30.7,30.7,0,0,1,284,432.51a26.52,26.52,0,0,1-10-10.2A28.63,28.63,0,0,1,275,394a26.35,26.35,0,0,1,10.72-9.48,30.9,30.9,0,0,1,15-3,32.45,32.45,0,0,1,12.18,2.65,24.13,24.13,0,0,1,9,6.83l-6.5,5.91a20.14,20.14,0,0,0-14.56-6.65,20.94,20.94,0,0,0-10.16,2,17.35,17.35,0,0,0-7.13,6.42,19.18,19.18,0,0,0-2.83,9.71,18.93,18.93,0,0,0,2.16,9.74,17.7,17.7,0,0,0,6.65,7,20.2,20.2,0,0,0,9.91,2.8,21.53,21.53,0,0,0,11.13-2.37Z"/><path class="cls-1" d="M370.64,423.78l-26.81-.93-5.72,12.22-10.26-.36,26-52.77,9.8.34L386,436.74l-10.41-.36Zm-3-7.93-9.29-23.78-10.85,23.08Z"/><path class="cls-1" d="M437.43,428.12l-.29,8.42L391.41,435l.24-6.66,32.9-37.43-31-1.08.29-8.43L438,382.9l-.24,6.66L404.88,427Z"/><path class="cls-1" d="M489.43,428.14l-.29,8.34-40.21-1.4,1.87-53.61,39.14,1.36-.29,8.35-29.18-1L460,404.1l25.89.91-.29,8.19-25.89-.9-.51,14.78Z"/><path class="cls-1" d="M538,436.22l-10.4-16.08a19.24,19.24,0,0,1-2.07,0l-12.1-.43-.55,15.63-10-.35,1.88-53.61,22.05.77a29.76,29.76,0,0,1,12.07,2.72,17.67,17.67,0,0,1,7.69,6.86A18.42,18.42,0,0,1,549,402a18.14,18.14,0,0,1-3.31,10.31,17.54,17.54,0,0,1-8.69,6.21l11.72,18.05Zm-2.12-42.55q-3.27-2.88-9.78-3.1l-11.64-.41-.74,21.37,11.64.4q6.49.24,10-2.45a9.7,9.7,0,0,0,3.64-7.8C539.09,398.25,538.06,395.59,535.87,393.67Z"/><path class="cls-1" d="M162.25,457l-.25,7.15,11.35.4-.13,3.69-11.35-.39-.31,9-4.37-.16.83-23.5,17.15.6-.13,3.66Z"/><path class="cls-1" d="M239.53,471.69l-11.75-.41-2.51,5.36-4.5-.16,11.4-23.13,4.3.15,9.78,23.87-4.56-.16Zm-1.32-3.47-4.08-10.43-4.75,10.12Z"/><path class="cls-1" d="M310.13,477.15l-4.56-7.06a8.16,8.16,0,0,1-.9,0l-5.31-.19-.24,6.85-4.36-.15.82-23.5,9.67.33a13,13,0,0,1,5.28,1.2,7.77,7.77,0,0,1,3.38,3,8.08,8.08,0,0,1,1,4.5,8,8,0,0,1-1.45,4.52,7.71,7.71,0,0,1-3.81,2.73l5.13,7.91Zm-.92-18.66a6.76,6.76,0,0,0-4.3-1.36l-5.1-.18-.32,9.37,5.1.18a6.62,6.62,0,0,0,4.37-1.08,4.81,4.81,0,0,0,.25-6.93Z"/><path class="cls-1" d="M386.4,477.23l.51-15.58-8.17,12.62-1.94-.07-7.28-13L369,476.62l-4.16-.14.82-23.51,3.59.13L378,469l9.71-15.25,3.59.12-.79,23.5Z"/><path class="cls-1" d="M444.44,476.3a10.81,10.81,0,0,1-3.94-2.19l1.63-3.33a11.91,11.91,0,0,0,3.47,2,13,13,0,0,0,4.19.87,7.28,7.28,0,0,0,3.94-.7,2.54,2.54,0,0,0,1.37-2.17,2.11,2.11,0,0,0-.66-1.69,5.31,5.31,0,0,0-1.8-1.09c-.73-.27-1.72-.58-3-.94a34.62,34.62,0,0,1-4.3-1.43,7.06,7.06,0,0,1-2.78-2.1,5.35,5.35,0,0,1-1.07-3.71,6.34,6.34,0,0,1,1.18-3.51,7.16,7.16,0,0,1,3.28-2.42,12.9,12.9,0,0,1,5.26-.76,16.76,16.76,0,0,1,4.21.69,11.66,11.66,0,0,1,3.53,1.66l-1.49,3.35a13.53,13.53,0,0,0-3.18-1.49,11.78,11.78,0,0,0-3.24-.58,6.75,6.75,0,0,0-3.87.73,2.72,2.72,0,0,0-1.34,2.28,2.11,2.11,0,0,0,.67,1.67,5.29,5.29,0,0,0,1.79,1.07c.73.27,1.73.58,3,.94a34.16,34.16,0,0,1,4.26,1.41,7.53,7.53,0,0,1,2.8,2.1,5.29,5.29,0,0,1,1.06,3.67,6.12,6.12,0,0,1-1.18,3.48,7.19,7.19,0,0,1-3.3,2.41,13,13,0,0,1-5.26.76A17.92,17.92,0,0,1,444.44,476.3Z"/></svg>